<svg xmlns="http://www.w3.org/2000/svg" width="420.73" height="516.68" viewBox="0 0 420.73 516.68"><path d="M309.43,344s-6.33-85.89,36.13-86.87c29.87-.69,28.56,28.17,17.61,40.17-14.32,15.68,0,41,24.26,25.05,23.21-15.23,46.17-58.57,16.34-102.88-31.91-47.39-100.34-37-115.26-18.28S211,267.26,211,267.26V407.67Z" fill="#ff298f"/><path d="M112.47,344s6.32-85.89-36.13-86.87c-29.88-.69-28.57,28.17-17.61,40.17,14.32,15.68,0,41-24.26,25.05-23.21-15.23-46.18-58.57-16.34-102.88,31.9-47.39,100.34-37,115.25-18.28S211,267.26,211,267.26V407.67Z" fill="#ff298f"/><path d="M309.43,344s-6.33-85.89,36.13-86.87c29.87-.69,28.56,28.17,17.61,40.17-14.32,15.68,0,41,24.26,25.05,23.21-15.23,46.17-58.57,16.34-102.88-31.91-47.39-100.34-37-115.26-18.28S211,267.26,211,267.26V407.67Z" fill="#ff298f"/><path d="M133.38,201.15c-3.86-4.84-19.4-11.12-28.89-14,25.82,17.89,58.44,110.52,38.24,131.23-10.17,10.44-24.62-4.72-33.23-21.84,4,19,3,47.41,3,47.41L211,407.67V267.26S148.26,219.77,133.38,201.15Z" fill="#d31880"/><path d="M314.45,288.27h0c-2.42,10.1-16.61,46.83-30.88,36-30.36-23,26-135.21,26-135.21h0c-9.61,2.87-17.17,7.19-21.07,12.07C273.64,219.77,211,267.26,211,267.26V407.67L309.43,344S307.16,313.19,314.45,288.27Z" fill="#d31880"/><path d="M45.3,282.65c2.34,0,4.24,2.87,4.24,6.4s-1.9,6.39-4.24,6.39-4.24-2.86-4.24-6.39,1.89-6.4,4.24-6.4m0-4c-4.62,0-8.24,4.57-8.24,10.4s3.62,10.39,8.24,10.39,8.24-4.57,8.24-10.39-3.62-10.4-8.24-10.4Z" fill="#e20084"/><path d="M22.4,279.84c1.57,0,3.06,1.77,3.41,4.15s-.67,4.78-2.35,5a1.63,1.63,0,0,1-.31,0c-1.57,0-3.06-1.78-3.41-4.15-.38-2.53.67-4.78,2.35-5l.31,0m0-4h0a5.46,5.46,0,0,0-.9.07,6.62,6.62,0,0,0-5,3.92,10,10,0,0,0-.74,5.66c.66,4.38,3.76,7.56,7.37,7.56a6.82,6.82,0,0,0,.9-.07c3.92-.59,6.43-4.79,5.72-9.58-.66-4.38-3.76-7.56-7.37-7.56Z" fill="#e20084"/><path d="M48.64,308.66a4.75,4.75,0,0,1,2.77,1c1.66,1.24,2.36,3.1,1.57,4.17a2,2,0,0,1-1.67.72,4.82,4.82,0,0,1-2.78-1c-1.65-1.23-2.35-3.1-1.56-4.17a2,2,0,0,1,1.67-.71m0-3h0a5,5,0,0,0-4.07,1.92,5.06,5.06,0,0,0-.55,4.87,8,8,0,0,0,2.72,3.5,7.79,7.79,0,0,0,4.57,1.62,4.82,4.82,0,0,0,4.61-6.79,7.93,7.93,0,0,0-2.71-3.5,7.75,7.75,0,0,0-4.57-1.62Z" fill="#e20084"/><path d="M45.29,259.19a1.72,1.72,0,0,1,.63.12c1.22.52,1.57,2.48.77,4.39-.67,1.59-1.93,2.64-3,2.64a1.68,1.68,0,0,1-.63-.12c-1.23-.52-1.58-2.48-.78-4.39.67-1.59,1.93-2.64,3-2.64m0-3h0c-2.39,0-4.67,1.76-5.81,4.48-1.47,3.49-.42,7.14,2.37,8.31a4.59,4.59,0,0,0,1.8.36c2.38,0,4.66-1.76,5.8-4.48,1.47-3.49.43-7.14-2.37-8.31a4.58,4.58,0,0,0-1.79-.36Z" fill="#e20084"/><path d="M15.15,245c2.91,0,5.26,4,5.26,8.9s-2.35,8.9-5.26,8.9-5.27-4-5.27-8.9,2.36-8.9,5.27-8.9m0-5c-5.86,0-10.27,6-10.27,13.9s4.41,13.9,10.27,13.9,10.26-6,10.26-13.9S21,240,15.15,240Z" fill="#e20084"/><path d="M51.32,230.72a3.9,3.9,0,0,1,3,1.18c1.94,2.16.55,6.58-3.11,9.86A11.35,11.35,0,0,1,44.12,245a4,4,0,0,1-3-1.18c-1.94-2.17-.55-6.58,3.11-9.87a11.41,11.41,0,0,1,7.12-3.2m0-5h0a16.21,16.21,0,0,0-10.46,4.48c-5.9,5.29-7.4,12.57-3.49,16.93A8.89,8.89,0,0,0,44.12,250a16.22,16.22,0,0,0,10.45-4.49,17.48,17.48,0,0,0,5.09-7.57c1.12-3.56.54-7-1.6-9.35a8.89,8.89,0,0,0-6.74-2.84Z" fill="#e20084"/><path d="M27.79,217.31a2.8,2.8,0,0,1,1.24.27c2.06,1,2.57,4.2,1.14,7.23-1.15,2.45-3.21,4-5,4a2.85,2.85,0,0,1-1.25-.28c-2.05-1-2.56-4.2-1.14-7.23,1.15-2.45,3.21-4,5.05-4m0-4h0c-3.47,0-6.87,2.47-8.67,6.31-2.4,5.11-1.05,10.62,3.06,12.55a6.77,6.77,0,0,0,2.95.66c3.46,0,6.86-2.48,8.66-6.32a11.66,11.66,0,0,0,1.07-6.71A7.54,7.54,0,0,0,30.74,214a7,7,0,0,0-2.95-.65Z" fill="#e20084"/><path d="M49.28,205.7a1.82,1.82,0,0,1,1.6.76c.61.95,0,2.41-1.32,3.28a3.71,3.71,0,0,1-1.93.6,1.82,1.82,0,0,1-1.61-.76c-.61-.94,0-2.41,1.33-3.27a3.58,3.58,0,0,1,1.93-.61m0-3h0a6.81,6.81,0,0,0-6.11,4.09,4.65,4.65,0,0,0,4.46,6.55,6.56,6.56,0,0,0,3.55-1.08,6.63,6.63,0,0,0,2.55-3,4.65,4.65,0,0,0-4.45-6.56Z" fill="#e20084"/><path d="M68.72,202.33a1.27,1.27,0,0,1,1.2.62c.32.66-.18,1.55-1.1,2a2.5,2.5,0,0,1-1,.26,1.27,1.27,0,0,1-1.21-.63c-.31-.65.18-1.55,1.11-2a2.44,2.44,0,0,1,1-.25m0-3a5.48,5.48,0,0,0-2.36.55A5.41,5.41,0,0,0,64,202.05a4.15,4.15,0,0,0-.16,3.84,4.25,4.25,0,0,0,3.91,2.32,5.44,5.44,0,0,0,2.35-.56,5.3,5.3,0,0,0,2.34-2.17,4.1,4.1,0,0,0,.16-3.83,4.25,4.25,0,0,0-3.9-2.32Z" fill="#e20084"/><path d="M67.83,248a2.79,2.79,0,0,1,2.44,1.15c.93,1.44,0,3.67-2,5a5.56,5.56,0,0,1-2.92.91,2.78,2.78,0,0,1-2.44-1.14c-.93-1.44,0-3.67,2-5a5.57,5.57,0,0,1,2.92-.92m0-3h0a8.54,8.54,0,0,0-4.54,1.4A8.44,8.44,0,0,0,60,250.18,5.5,5.5,0,0,0,65.34,258a8.76,8.76,0,0,0,7.82-5.23A5.51,5.51,0,0,0,67.83,245Z" fill="#e20084"/><path d="M28.19,304A2,2,0,0,1,29.76,305a1.66,1.66,0,0,1-.15,2.28,1,1,0,0,1-.52.14,2,2,0,0,1-1.58-1,1.67,1.67,0,0,1,.16-2.28,1,1,0,0,1,.52-.14m0-3h0a4,4,0,0,0-2.09.58C24,302.83,23.53,305.64,25,308a5,5,0,0,0,4.14,2.49,4,4,0,0,0,2.08-.58,4.1,4.1,0,0,0,1.94-3.31,5.32,5.32,0,0,0-.79-3.09A5,5,0,0,0,28.19,301Z" fill="#e20084"/><path d="M68.81,221a1.73,1.73,0,0,1,1.5.73c.56.86.08,2.16-1.06,2.9a3,3,0,0,1-1.57.48,1.69,1.69,0,0,1-1.5-.73,2.21,2.21,0,0,1,1-2.89,3,3,0,0,1,1.58-.49m0-3h0a5.93,5.93,0,0,0-3.2,1c-2.57,1.66-3.43,4.75-2,7.05a4.72,4.72,0,0,0,4,2.1,5.89,5.89,0,0,0,3.19-1c2.58-1.66,3.44-4.75,2-7a4.72,4.72,0,0,0-4-2.1Z" fill="#e20084"/><path d="M376.85,282.65c2.34,0,4.24,2.87,4.24,6.4s-1.9,6.39-4.24,6.39-4.24-2.86-4.24-6.39,1.9-6.4,4.24-6.4m0-4c-4.62,0-8.24,4.57-8.24,10.4s3.62,10.39,8.24,10.39,8.24-4.57,8.24-10.39-3.62-10.4-8.24-10.4Z" fill="#e20084"/><path d="M399.75,279.84l.31,0c1.67.26,2.73,2.51,2.35,5-.36,2.37-1.85,4.15-3.42,4.15a1.53,1.53,0,0,1-.3,0c-1.68-.25-2.73-2.5-2.36-5s1.85-4.15,3.42-4.15m0-4c-3.62,0-6.72,3.18-7.37,7.56-.72,4.79,1.79,9,5.72,9.58a6.54,6.54,0,0,0,.89.07c3.62,0,6.72-3.18,7.38-7.56a10.13,10.13,0,0,0-.74-5.66,6.62,6.62,0,0,0-5-3.92,5.46,5.46,0,0,0-.9-.07Z" fill="#e20084"/><path d="M373.51,308.66a2,2,0,0,1,1.67.71c.79,1.07.09,2.94-1.57,4.17a4.79,4.79,0,0,1-2.77,1,2,2,0,0,1-1.67-.72c-.79-1.07-.09-2.93,1.56-4.17a4.8,4.8,0,0,1,2.78-1m0-3a7.72,7.72,0,0,0-4.57,1.62,8,8,0,0,0-2.72,3.5,5,5,0,0,0,.55,4.86,5,5,0,0,0,4.07,1.93,7.81,7.81,0,0,0,4.57-1.62,8,8,0,0,0,2.71-3.5,4.82,4.82,0,0,0-4.61-6.79Z" fill="#e20084"/><path d="M376.86,259.19c1.11,0,2.37,1.05,3,2.64.8,1.91.46,3.87-.77,4.39a1.68,1.68,0,0,1-.63.12c-1.11,0-2.37-1-3-2.64-.8-1.91-.46-3.87.77-4.39a1.68,1.68,0,0,1,.63-.12m0-3a4.54,4.54,0,0,0-1.79.36c-2.8,1.17-3.84,4.82-2.38,8.31,1.15,2.72,3.43,4.48,5.81,4.48a4.54,4.54,0,0,0,1.79-.36c2.8-1.17,3.84-4.82,2.38-8.31-1.15-2.72-3.43-4.48-5.81-4.48Z" fill="#e20084"/><path d="M407,245c2.91,0,5.27,4,5.27,8.9s-2.36,8.9-5.27,8.9-5.27-4-5.27-8.9,2.36-8.9,5.27-8.9m0-5c-5.85,0-10.27,6-10.27,13.9s4.42,13.9,10.27,13.9,10.27-6,10.27-13.9S412.85,240,407,240Z" fill="#e20084"/><path d="M370.83,230.72a11.41,11.41,0,0,1,7.12,3.2c3.66,3.29,5.05,7.7,3.1,9.87a3.94,3.94,0,0,1-3,1.18,11.38,11.38,0,0,1-7.12-3.21c-3.66-3.28-5.05-7.7-3.1-9.86a3.9,3.9,0,0,1,3-1.18m0-5a8.87,8.87,0,0,0-6.74,2.84c-2.14,2.38-2.72,5.79-1.6,9.35a17.55,17.55,0,0,0,5.08,7.57A16.25,16.25,0,0,0,378,250a8.91,8.91,0,0,0,6.75-2.84c3.9-4.36,2.41-11.64-3.49-16.93a16.23,16.23,0,0,0-10.46-4.48Z" fill="#e20084"/><path d="M394.36,217.31c1.83,0,3.9,1.56,5.05,4,1.42,3,.91,6.27-1.14,7.23a2.89,2.89,0,0,1-1.25.28c-1.84,0-3.9-1.57-5-4-1.42-3-.91-6.27,1.14-7.23a2.87,2.87,0,0,1,1.25-.27m0-4a6.91,6.91,0,0,0-2.95.65c-4.11,1.93-5.46,7.45-3.06,12.55,1.8,3.84,5.2,6.32,8.67,6.32a6.8,6.8,0,0,0,3-.66c4.11-1.93,5.45-7.44,3.06-12.55-1.81-3.84-5.21-6.31-8.67-6.31Z" fill="#e20084"/><path d="M372.87,205.7a3.61,3.61,0,0,1,1.93.61c1.34.86,1.94,2.33,1.33,3.27a1.83,1.83,0,0,1-1.61.76,3.68,3.68,0,0,1-1.93-.6c-1.34-.87-1.94-2.33-1.33-3.28a1.84,1.84,0,0,1,1.61-.76m0-3a4.66,4.66,0,0,0-4.46,6.56,6.66,6.66,0,0,0,2.56,3,6.56,6.56,0,0,0,3.55,1.08,4.64,4.64,0,0,0,4.45-6.55,6.78,6.78,0,0,0-6.1-4.09Z" fill="#e20084"/><path d="M353.43,202.33a2.44,2.44,0,0,1,1.05.25c.93.45,1.42,1.35,1.1,2a1.26,1.26,0,0,1-1.2.63,2.46,2.46,0,0,1-1.05-.26c-.93-.45-1.42-1.34-1.11-2a1.29,1.29,0,0,1,1.21-.62m0-3a4.26,4.26,0,0,0-3.91,2.32c-1,2.18.05,4.81,2.5,6a5.49,5.49,0,0,0,2.36.56,4.24,4.24,0,0,0,3.9-2.32c1.06-2.18,0-4.82-2.49-6a5.51,5.51,0,0,0-2.36-.55Z" fill="#e20084"/><path d="M354.32,248a5.57,5.57,0,0,1,2.92.92c2,1.31,2.94,3.54,2,5a2.78,2.78,0,0,1-2.44,1.14,5.53,5.53,0,0,1-2.92-.91c-2-1.31-2.94-3.54-2-5a2.8,2.8,0,0,1,2.45-1.15m0-3a5.51,5.51,0,0,0-5.33,7.81,8.76,8.76,0,0,0,7.82,5.23,5.5,5.5,0,0,0,5.32-7.81,8.42,8.42,0,0,0-3.27-3.83,8.54,8.54,0,0,0-4.54-1.4Z" fill="#e20084"/><path d="M394,304a1,1,0,0,1,.52.14,1.66,1.66,0,0,1,.15,2.28,2,2,0,0,1-1.57,1,1,1,0,0,1-.52-.14,1.66,1.66,0,0,1-.15-2.28A2,2,0,0,1,394,304m0-3a5,5,0,0,0-4.14,2.49,5.4,5.4,0,0,0-.79,3.09,4.14,4.14,0,0,0,2,3.31,4,4,0,0,0,2.08.58,5,5,0,0,0,4.13-2.49c1.43-2.33.92-5.14-1.15-6.4A4,4,0,0,0,394,301Z" fill="#e20084"/><path d="M353.34,221a2.92,2.92,0,0,1,1.57.49,2.21,2.21,0,0,1,1.06,2.89,1.7,1.7,0,0,1-1.5.73,3,3,0,0,1-1.58-.48,2.22,2.22,0,0,1-1.05-2.9,1.73,1.73,0,0,1,1.5-.73m0-3a4.76,4.76,0,0,0-4,2.1c-1.47,2.3-.61,5.39,2,7a5.93,5.93,0,0,0,3.2,1,4.7,4.7,0,0,0,4-2.1c1.48-2.3.62-5.39-1.95-7.05a5.93,5.93,0,0,0-3.2-1Z" fill="#e20084"/><path d="M302.75,340.64c-1.33,3.73-.54,4.38-.77,3.69v-.47l0-.59,0-1.17,0-2.3c0-1.54,0-3.06,0-4.59.06-3,.17-6.08.35-9.12.36-6.07,1-12.13,1.86-18.18A149,149,0,0,1,308,289.82a80.43,80.43,0,0,1,7.1-17.6,47.31,47.31,0,0,1,5.67-8.1,35.11,35.11,0,0,1,7.74-6.74,30.21,30.21,0,0,1,9.63-4,33.05,33.05,0,0,1,5.1-.76c.84,0,1.71-.07,2.53-.07s1.62,0,2.44.07a36,36,0,0,1,9.89,1.83,24.4,24.4,0,0,1,9.08,5.46,22.27,22.27,0,0,1,5.64,9.08,27.48,27.48,0,0,1,1.29,10.14,33.83,33.83,0,0,1-2,9.7,31.94,31.94,0,0,1-4.7,8.7c-.52.67-1.06,1.32-1.64,1.94s-.87.95-1.27,1.45a19.6,19.6,0,0,0-2.06,3.15,16.82,16.82,0,0,0-1.89,7.12,14.05,14.05,0,0,0,1.56,7.07,11.78,11.78,0,0,0,4.93,5,12.48,12.48,0,0,0,7.08,1.29,21.86,21.86,0,0,0,7.47-2.18,39.72,39.72,0,0,0,6.92-4.43,58.1,58.1,0,0,0,6.22-5.64,68.92,68.92,0,0,0,12.4-77.88A87,87,0,0,0,398.49,220a71.14,71.14,0,0,0-11.36-12,73.13,73.13,0,0,0-29.37-14.48q-4-1-8.16-1.57t-8.27-.86a92.37,92.37,0,0,0-16.63.55,79.09,79.09,0,0,0-16.05,3.65,43.29,43.29,0,0,0-13.56,7.24c-.45.38-.86.77-1.24,1.16-.19.19-.38.39-.54.58l-.61.72c-.52.61-1.05,1.25-1.58,1.85l-1.59,1.74c-2.14,2.26-4.3,4.41-6.49,6.48-4.37,4.18-8.92,8-13.45,11.89q-3.42,2.88-6.86,5.7l-7,5.51q-7,5.47-14.09,10.82c-2.36,1.78-4.7,3.58-7.1,5.31l-7.21,5.17c-4.82,3.43-9.64,6.84-14.59,10.12h0l1.19-2.39v140.4h0l-4.63-2.52C240.92,382.92,271.82,361.38,302.75,340.64Zm10.4,5.17C279.67,367.51,246,389,212.58,410.18l-4.69,3,.06-5.48h0V265.77l1.19-.9h0c18.05-15.07,36.27-30,53.84-45.46,4.39-3.85,8.74-7.75,12.88-11.76,2.08-2,4.09-4,6-6.1l1.39-1.55,1.3-1.56.8-.95c.29-.36.6-.68.91-1a25.27,25.27,0,0,1,1.91-1.83,39.79,39.79,0,0,1,8.31-5.48,64.93,64.93,0,0,1,8.8-3.66,89.91,89.91,0,0,1,18.2-3.94,102.71,102.71,0,0,1,18.47-.41,91.06,91.06,0,0,1,18.23,3.07,82.22,82.22,0,0,1,32.6,17.22,78.81,78.81,0,0,1,12.35,13.78,95,95,0,0,1,9,16,76.11,76.11,0,0,1-15.79,84.56,63.07,63.07,0,0,1-6.9,6,43.63,43.63,0,0,1-7.87,4.74,26.81,26.81,0,0,1-9.06,2.54,17.59,17.59,0,0,1-9.5-1.74,16.49,16.49,0,0,1-6.94-6.8,19.64,19.64,0,0,1-2.37-9.34,21.83,21.83,0,0,1,2.13-9.34,24.14,24.14,0,0,1,2.48-4.11c.47-.63,1-1.27,1.5-1.84s.86-1,1.26-1.57a28.09,28.09,0,0,0,5-15.36c.14-5.41-1.6-10.81-5.42-14.22s-9.24-4.85-14.71-4.95a24.64,24.64,0,0,0-15.14,4.13,27.09,27.09,0,0,0-5.83,5.45,39.55,39.55,0,0,0-4.46,6.9,71.37,71.37,0,0,0-5.73,15.88,123.51,123.51,0,0,0-2.82,17c-.59,5.74-.87,11.53-.93,17.32,0,2.89,0,5.79.08,8.68,0,1.44.1,2.89.18,4.32l.12,2.16.08,1.06,0,.53,0,.26v.13C313.44,343.22,313.89,343.66,313.15,345.81Z" fill="#490089"/><path d="M105.79,347.28c-1.32-3.83-.52-4.57-.75-4l0-.12,0-.25,0-.51.09-1,.15-2.11c.09-1.41.17-2.83.24-4.25q.18-4.28.2-8.56c0-5.71-.18-11.41-.67-17.06a121.08,121.08,0,0,0-2.52-16.68,69.3,69.3,0,0,0-5.3-15.42,37.76,37.76,0,0,0-4.1-6.58,25.35,25.35,0,0,0-5.29-5.12,20.47,20.47,0,0,0-6.45-3.1,24.63,24.63,0,0,0-7.46-.91c-5.23,0-10.23,1.3-13.6,4.34s-5.1,7.8-5,12.9A26.56,26.56,0,0,0,60,293.42c.37.51.75,1,1.16,1.48s1.07,1.27,1.56,1.94a25.83,25.83,0,0,1,2.59,4.36,23.2,23.2,0,0,1,2.19,9.92A20.76,20.76,0,0,1,64.92,321a17.6,17.6,0,0,1-7.5,7.22,19.37,19.37,0,0,1-10.09,1.84,27.85,27.85,0,0,1-9.44-2.6,45.2,45.2,0,0,1-8.09-4.86,63.39,63.39,0,0,1-7-6,76.52,76.52,0,0,1-16-85.86,95.2,95.2,0,0,1,9.08-16.18,78.91,78.91,0,0,1,12.55-14,83.39,83.39,0,0,1,33.05-17.43q4.53-1.23,9.15-2c3.08-.5,6.19-.84,9.29-1a103.08,103.08,0,0,1,18.67.46,90.28,90.28,0,0,1,18.4,4,66.62,66.62,0,0,1,8.92,3.73,40.87,40.87,0,0,1,8.49,5.63,26.75,26.75,0,0,1,2,1.89c.32.33.64.67.94,1l.82,1,1.27,1.53,1.37,1.53q2.85,3.06,6,6.07c4.13,4,8.4,8,12.75,11.84l13.16,11.62q6.61,5.79,13.35,11.49c2.23,1.9,4.5,3.77,6.72,5.69l6.69,5.76c4.47,3.83,9,7.63,13.4,11.49h0l1.19.9V407.66h0l.2,5.39-4.83-2.88C175.27,389.94,140.52,369,105.79,347.28Zm10.4-5.17c32.17,20.76,64.2,41.74,96.38,63L208,407.67h0V267.26l1.19,2.39h0c-4.89-3.36-9.66-6.82-14.43-10.32s-9.53-7-14.19-10.63-9.34-7.25-14-10.94l-6.93-5.57q-3.42-2.85-6.79-5.76c-4.5-3.88-9-7.82-13.32-12-2.19-2.06-4.33-4.21-6.45-6.45l-1.57-1.72c-.52-.59-1-1.22-1.55-1.83l-.63-.73a8.48,8.48,0,0,0-.58-.63,16.7,16.7,0,0,0-1.29-1.21,44.42,44.42,0,0,0-13.87-7.47,80.37,80.37,0,0,0-16.24-3.74,93.49,93.49,0,0,0-33.46,1.83A74.24,74.24,0,0,0,34,207.2a72,72,0,0,0-11.55,12.16,87.8,87.8,0,0,0-8.75,14.54,69.59,69.59,0,0,0,2.41,65.41,69.62,69.62,0,0,0,10.22,13.76,59.39,59.39,0,0,0,6.35,5.74,40.13,40.13,0,0,0,7.13,4.54,22.53,22.53,0,0,0,7.87,2.24,14.18,14.18,0,0,0,7.66-1.38,13,13,0,0,0,5.49-5.39,15.25,15.25,0,0,0,1.78-7.66,18,18,0,0,0-2-7.7,20.14,20.14,0,0,0-2.16-3.4c-.42-.54-.85-1-1.33-1.55s-1.06-1.21-1.54-1.84a32.15,32.15,0,0,1-6.25-17.61,26.05,26.05,0,0,1,1.26-9.55,20.68,20.68,0,0,1,5.27-8.36,22.61,22.61,0,0,1,8.47-5,34.41,34.41,0,0,1,9.39-1.66,30.16,30.16,0,0,1,18.47,4.66,33,33,0,0,1,7.2,6.41,45.49,45.49,0,0,1,5.32,7.79,77.71,77.71,0,0,1,6.66,17.14A145.41,145.41,0,0,1,115,308.24c.82,6,1.33,11.95,1.6,17.94.13,3,.21,6,.22,9,0,1.5,0,3,0,4.5L116.7,342l0,1.14,0,.57v.44C116.49,344.51,116.93,344.17,116.19,342.11Z" fill="#490089"/><path d="M241,387.11c-8.78-105,41.92-123.28,49.95-202.51,9.1-89.77-58.47-114.29-80-179,0,0-89.09,89.22-80,179,8,79.23,58.73,97.53,49.95,202.51l30,20.56,30-20.56" fill="#ff298f"/><path d="M197.21,398.27C214.48,275.62,157.71,257.51,146.9,182c-9.87-69.05,42.9-139.2,67.37-167.5-1.2-2.87-2.31-5.81-3.32-8.85,0,0-89.09,89.22-80,179,8,79.23,58.73,97.53,49.95,202.51Z" fill="#d31880"/><ellipse cx="210.64" cy="117.48" rx="15.38" ry="27.61" fill="#e20084"/><ellipse cx="170.14" cy="151.44" rx="13.51" ry="24.26" fill="#e20084"/><ellipse cx="253.88" cy="154.18" rx="9.66" ry="17.35" fill="#e20084"/><path d="M228.5,40.59c-3.66,4.31-6.08,11.74-6.08,20.19,0,13.33,6,24.14,13.44,24.14,6.06,0,11.19-7.23,12.86-17.14C241.76,58.92,234.79,50.06,228.5,40.59Z" fill="#e20084"/><path d="M277.87,110.37c-4.72.92-8.39,8.09-8.39,16.81,0,9.34,4.22,16.91,9.42,16.91,3.72,0,6.93-3.88,8.46-9.5A126.6,126.6,0,0,0,277.87,110.37Z" fill="#e20084"/><ellipse cx="171.68" cy="85.24" rx="12.39" ry="22.24" fill="#e20084"/><ellipse cx="201.38" cy="70.5" rx="5.41" ry="9.72" fill="#e20084"/><ellipse cx="143.86" cy="188.97" rx="9.72" ry="17.45" fill="#e20084"/><ellipse cx="218.92" cy="173.48" rx="7.34" ry="13.17" fill="#e20084"/><ellipse cx="246.31" cy="107.48" rx="5.57" ry="10" fill="#e20084"/><ellipse cx="273.33" cy="183.48" rx="5.57" ry="10" fill="#e20084"/><path d="M238,387.36a241.4,241.4,0,0,1-.24-52.25,186,186,0,0,1,4.9-25.89,206.47,206.47,0,0,1,8.45-24.93c6.57-16.23,14.74-31.43,21.13-47a201.24,201.24,0,0,0,8.25-23.76,182.93,182.93,0,0,0,4.91-24.57l.39-3.11c.13-1,.25-2.08.32-3.12l.49-6.24c.15-4.15.31-8.31.16-12.46a124.45,124.45,0,0,0-3-24.58,118.07,118.07,0,0,0-8-23.48,162.89,162.89,0,0,0-12.35-21.86C254.06,80,243,66.76,232.89,52.65a220.51,220.51,0,0,1-14.15-22A137.72,137.72,0,0,1,208.1,6.56l5,1.17c-5.85,6-11.47,12.54-16.87,19.12s-10.55,13.42-15.48,20.39a309.63,309.63,0,0,0-26.07,43.9,236.81,236.81,0,0,0-9.88,23.44,184,184,0,0,0-7,24.33l-.66,3.09-.33,1.55-.25,1.55-1,6.23c-.44,4.17-1,8.34-1.16,12.52-.34,4.19-.18,8.37-.15,12.55l.44,6.24.1,1.57.2,1.56.38,3.14a188.73,188.73,0,0,0,13.29,48.65c6.46,15.68,14.65,30.87,21.31,47a192.62,192.62,0,0,1,13.58,50.6A220.07,220.07,0,0,1,185,361.3c.05,8.72-.54,17.4-1.3,26h0l-1.21-2.54,30.1,20.47h-3.28l30-20.63,3.39,4.95-30.09,20.47-1.65,1.12-1.63-1.12-30-20.64-1.33-.91.12-1.63h0l.34-6.39.17-3.19.07-3.19c.05-2.13.13-4.25.14-6.38l-.06-6.37A227.67,227.67,0,0,0,176.83,336a186.59,186.59,0,0,0-13.72-48.64c-6.55-15.65-14.81-30.78-21.55-46.9a204.36,204.36,0,0,1-8.7-24.79,183.16,183.16,0,0,1-5.09-25.83l-.39-3.27-.19-1.63-.11-1.66-.43-6.63c0-4.42-.16-8.85.21-13.25.17-4.41.78-8.78,1.33-13.15l1.13-6.5.29-1.62.36-1.61.73-3.21a192.47,192.47,0,0,1,7.61-25.12,251.39,251.39,0,0,1,10.46-24q5.85-11.67,12.64-22.81l3.45-5.52,3.56-5.45c2.4-3.62,4.83-7.21,7.35-10.74Q183.3,33.11,191.53,23c5.52-6.72,11.15-13.23,17.29-19.55L212.22,0l1.58,4.66a130.88,130.88,0,0,0,10.4,22.92,200.77,200.77,0,0,0,14.09,21.11C248.49,62.31,260,75.18,270,89.53a170.18,170.18,0,0,1,13.57,22.66,127.56,127.56,0,0,1,9.24,25c4.32,17.36,4.75,35.51,2.44,53a178.1,178.1,0,0,1-5.21,26,212.17,212.17,0,0,1-8.75,24.9c-3.39,8.07-7.2,15.88-10.94,23.62s-7.44,15.4-10.78,23.16a189.94,189.94,0,0,0-13.88,48.34,220.89,220.89,0,0,0-2.17,25.23l-.1,6.35c0,2.12.06,4.25.08,6.37l0,3.19.13,3.18.28,6.38Z" fill="#490089"/><polygon points="305.95 398.74 210.95 463.74 115.95 398.74 115.95 448.05 210.95 513.05 305.95 448.05 305.95 398.74" fill="#ffd628" stroke="#490089" stroke-miterlimit="10" stroke-width="6"/><polygon points="318.98 333.75 210.95 407.67 102.92 333.75 102.92 389.82 210.95 463.73 318.98 389.82 318.98 333.75" fill="#ffd628" stroke="#490089" stroke-miterlimit="10" stroke-width="6"/></svg>