<svg xmlns="http://www.w3.org/2000/svg" width="802.37" height="275" viewBox="0 0 802.37 275"><polygon points="329.49 0 329.39 0 255 0 254.89 0 154.8 275 177.48 275 229.29 275 285.46 275 247.48 225.03 292.19 102.19 336.9 225.02 298.91 275 355.09 275 406.9 275 429.58 275 329.49 0" fill="#7f36e8"/><polygon points="204.52 70 230 0 114 0 44 0 0 0 0 70 44 70 44 117.91 44 187.91 44 225.02 6.01 275 44 275 114 275 114 225 114 187.91 161.6 187.91 187.08 117.91 114 117.91 114 70 204.52 70" fill="#7f36e8"/><polygon points="723.29 205 648.67 0 574.18 0 650.57 209.87 626.86 275 674.27 275 748.77 275 802.37 275 802.37 205 723.29 205" fill="#7f36e8"/><path d="M602.21,145.87H552.09L586,101.28,549.12,0H354.5L454.59,275H598.26l25.47-70ZM503.6,205,454.47,70h45.64l12.83,35.27-30.85,40.6h45.63L549.24,205Z" fill="#7f36e8"/><polygon points="78.42 270.65 109.65 265.07 104.07 270.65 109.65 241.48 109.65 270.65 109.65 270.65 78.42 270.65" fill="#fff"/><polygon points="767.03 270.65 798.25 265.07 792.68 270.65 798.25 241.48 798.25 270.65 798.25 270.65 767.03 270.65" fill="#fff"/><polygon points="562.36 270.65 593.58 265.07 588.39 268.6 605.08 241.48 593.58 270.65 593.58 270.65 562.36 270.65" fill="#fff"/><polygon points="337.61 33.03 321.69 5.6 326.79 9.26 295.59 2.86 326.93 3.69 326.93 3.69 337.61 33.03" fill="#fff"/><polygon points="556.94 33.03 541.02 5.6 546.11 9.26 514.92 2.86 546.26 3.69 546.26 3.69 556.94 33.03" fill="#fff"/><polygon points="656.72 33.03 640.8 5.6 645.89 9.26 614.7 2.86 646.04 3.69 646.04 3.69 656.72 33.03" fill="#fff"/><polygon points="411.76 241.34 422.38 270.65 391.42 270.65 416.05 266.21 411.76 241.34" fill="#fff"/><polygon points="213.59 32.62 224.21 3.31 193.25 3.31 217.88 7.75 213.59 32.62" fill="#fff"/><path d="M759,196H729V155.75h30v10.57H741.55v4.31h12.93v10H741.55v4.81H759Z" fill="#7f36e8"/><path d="M786.47,196H765.61V155.75h20.86c9.4,0,13.77,3.64,13.77,11.41v17.46C800.24,192.39,795.87,196,786.47,196Zm-8.16-10.57H785c1.79,0,2.63-.84,2.63-2.74v-13.6c0-1.84-.84-2.68-2.63-2.68h-6.65Z" fill="#7f36e8"/></svg>